<svg xmlns="http://www.w3.org/2000/svg" viewBox="0 0 190.63 77.77"><defs><style>.cls-1{fill:#6f9da0;}.cls-2{fill:#163953;}.cls-3{fill:#1d3f58;}.cls-4{fill:#193b55;}.cls-5{fill:#24455d;}.cls-6{fill:#173a54;}.cls-7{fill:#1c3e57;}.cls-8{fill:#37556b;}.cls-9{fill:#0f334e;}.cls-10{fill:#2e4d65;}.cls-11{fill:#efe99e;}.cls-12{fill:#eceef1;}.cls-13{fill:#edf0f2;}.cls-14{fill:#e8ecee;}.cls-15{fill:#eaedef;}.cls-16{fill:#c4bfbf;}.cls-17{fill:#c3cdc9;}.cls-18{fill:#c6c8c4;}.cls-19{fill:#e42c36;}.cls-20{fill:#e33740;}.cls-21{fill:#dbe5e5;}.cls-22{fill:#cfd9d9;}.cls-23{fill:#e64e55;}.cls-24{fill:#eb666c;}.cls-25{fill:#d2989b;}.cls-26{fill:#ef9093;}</style></defs><g id="Layer_2" data-name="Layer 2"><g id="Layer_1-2" data-name="Layer 1"><path class="cls-1" d="M.11,38.66c-.7-7.74,2-15,6.26-21C11.46,10.53,18.07,4.44,27,2a62.9,62.9,0,0,1,6.64-1C35.51.61,37.43-.15,39.27,0,46.6.7,53.71,2.33,60,6.41A39.84,39.84,0,0,1,74,22.22a28.51,28.51,0,0,1,3.17,9.91c.24,2.38,1.1,4.7.88,7.17a45.74,45.74,0,0,1-5.59,19c-4.84,8.55-12.35,13.32-20.73,17.32a22.3,22.3,0,0,1-4.6,1.09,26.5,26.5,0,0,1-7.1,1c-9.89-.53-19.42-2.42-26.71-10-3.26-3.41-6.88-6.44-9-10.91C1.71,51.05-.36,45.26.11,38.66ZM45,74c18.32-3,28.79-17.82,30.12-33.28.33-3.85-.66-7.48-1.26-11.11a24,24,0,0,0-4-9,57.18,57.18,0,0,0-7.74-8.87,32.78,32.78,0,0,0-6.31-4.36,34.18,34.18,0,0,0-14.5-4.15A34.18,34.18,0,0,0,19.49,8.92C13.1,13.14,7.69,18.59,5.22,25.73-.52,42.32,4.66,59.08,18.58,68A14,14,0,0,0,22,56.28a19.46,19.46,0,0,0-3.14-7.84c-2.18-3.07-3.15-6.57-4.46-9.92A16.82,16.82,0,0,1,14.53,26C17,19.66,21,14.75,27.41,12.13c.88-.36,1.74-.77,2.38-1.05,2.41-.59,4.77.53,6.93-1a3,3,0,0,1,2.82.1c1.38,1.07,2.83.63,4.27.77a21.55,21.55,0,0,1,2.91.26c7.79,1.88,12.46,7.08,14.2,14.6.63,2.72,2.91,5.83-.26,8.69a62.13,62.13,0,0,0,4.22,6.63,4.67,4.67,0,0,1,1,4.66L63.38,47.3c-.5,4.53-1,8.87-1.48,13.22l-2.11,2.31c-4.08.53-8-.87-11.44,1.4C47.05,67.23,45.25,70.07,45,74ZM39.94,15.42H28.46c-1.48,2.74-5.62,2.2-7.07,5.24l.63,1c-.58.14-1.35.12-1.45.37a11.54,11.54,0,0,0-1.1,4.77l-1.38.48c.29,1.4,1.06,2.87.72,4-.53,1.74,0,3.27.36,4.73s1.58,2.41,2.52,3.74l-.54.79c2.13-.59,1.38,2.69,3.63,2.49a3.62,3.62,0,0,1,3.65,2.28c1.34,0,2.54,0,3.74,0s2.38.11,3.77.18L36.52,47l1.22-2.1,2.07.86.64-1.7,1.28.79L42.47,43l2.6-.29-1-1.54L47,40.68l-.7-1.2a5.37,5.37,0,0,0,2.8-3.8l-.88-1.47a7,7,0,0,0,1.07-.3,3.85,3.85,0,0,0,.67-.47l-.82-5,.9-1.19-1.8-.71a4.24,4.24,0,0,0-2-5l.87-1.36-2.76-.5.65-1.78C42.66,18,40.71,17.61,39.94,15.42Z"/><path class="cls-2" d="M161.11,47.71h-4.88c-.13-2.63,0-5.49-2.53-7.66h-3.38v5.32l2.35,2.32h-6.56c1.53-4.57,1.54-13.17-.07-17.54h10.89l2,2.18v4.05l-2.16,2.45Zm-11-9.92c2.44.22,4.4.08,5.91-1.6.28-1.76.29-3.38-1.21-4h-4.7Z"/><path class="cls-3" d="M84.14,38V32.53c1.8-2.39,4.21-4.22,7.08-3.41,2.26.64,5.11,1.77,4.86,5.32-1.17.39-2.18,1.24-3.13-.67-.46-.91-2-1.43-3.12-1.8a2.47,2.47,0,0,0-1.65,4.57,10.3,10.3,0,0,0,3.13,1.08,6.49,6.49,0,0,1,4.76,3.1V45c-1.19,2.78-3.92,2.81-6,3.9-3-1.31-6.76-1.84-7-6.24,1.35-1.31,2.83-1,3.33.37.67,1.81,2.34,1.94,3.39,3.1l3.11-1.53c.67-1.93-.12-3-2-3.71C88.75,40,86.59,39,84.14,38Z"/><path class="cls-4" d="M180.56,35h4.93c2.46-2.5-2.55-3.27-1.09-5.84L188,29V44l2.66,3.67H179.29l-2.1-2.9V38.12Zm.52,10.66c3.1.18,3.1.18,5-1.28V38.42L183.1,36.9l-2.8,1.42c-.5,1.15-.93,2.16-1.44,3.32Z"/><path class="cls-5" d="M100.84,47.94l-2.77-2.42V38.16l3.84-3.39,5.93,1.11,1.64,6h-8.2c-.64,2.32.06,3.72,2,3.94,1.35.15,2.78-.43,4.51-.74l.5,2.24C105.78,48.43,103.31,47.78,100.84,47.94Zm5.29-8.23c-.07-1.72-.87-2.59-2.29-2.73-1.73-.18-2.61.78-2.91,2.73Z"/><path class="cls-6" d="M137.13,46.59c-2.77,1.95-4.73,1-6.42,1.43a17.88,17.88,0,0,1-1.62-7.73c0-1.35-.67-2.73-1.12-4.41a7.54,7.54,0,0,0,1.95-1.53c.45-.67.46-1.63,1.54-2.51l1,3,2.46.36.14,2.34-2.89.63v7.38Z"/><path class="cls-3" d="M166.07,41.89c-.25.27-.77.68-.71.8.68,1.39,1.44,2.74,2,3.86l2.66-.54v1.88h-5c-.95-1.79-2-3.73-3-5.66.71-1.95,1.42-3.87,2.31-6.29l5.49-1.12,4.28,3.81L173,40.92l-1.87-1c0-1.93-.85-3.17-2.9-3-1.76.18-2.43,1.39-2.21,3.1Z"/><path class="cls-7" d="M116,36.08l5.41-1.44,3.17,4.14c.44,3.46.75,6,1.11,8.86-1.62.63-3.59.34-6.1,0l2.48-3.52c-.52-1.86.92-4.22-1.64-6.21h-3.42Z"/><path class="cls-8" d="M137.17,35.05h4.68c.06,1.57.14,3.17.18,4.78s0,3,0,4.5l2.13,2.44c-.34.54-.5,1-.68,1-2.1.05-4.21,0-7,0,1.14-1.62,1.85-2.64,2.58-3.69v-5.6l-1.91-1.18Z"/><path class="cls-9" d="M116,36.08l1,1.8c-1,2.5-1,2.5-.78,7.42l2.61,2.33h-7.09L114,44.2V38.5c-1.53-1.07-1.53-1.07-1.86-2.85C112.94,34.6,114.28,34.75,116,36.08Z"/><path class="cls-4" d="M171.15,40l1.87,1c-.39.35-.77,1-1.18,1-1.92.09-3.84,0-5.77,0l0-1.81Z"/><path class="cls-10" d="M139,30.06h2.94v2.65h-2.69C139.15,32,139.08,31.23,139,30.06Z"/><path class="cls-4" d="M170.07,47.89V46l2.51-1.29c.22,1,.39,1.83.67,3.17Z"/><path class="cls-11" d="M39.94,15.42c.77,2.19,2.72,2.59,5,2.51l-.65,1.78,2.76.5-.87,1.36a4.24,4.24,0,0,1,2,5l1.8.71-.9,1.19.82,5a3.85,3.85,0,0,1-.67.47,7,7,0,0,1-1.07.3l.88,1.47a5.37,5.37,0,0,1-2.8,3.8l.7,1.2-2.89.53,1,1.54-2.6.29-.74,1.76L40.45,44l-.64,1.7-2.07-.86L36.52,47l-.58-1.42c-1.39-.07-2.58-.15-3.77-.18s-2.4,0-3.74,0a3.62,3.62,0,0,0-3.65-2.28c-2.25.2-1.5-3.08-3.63-2.49l.54-.79c-.94-1.33-2.2-2.42-2.52-3.74s-.89-3-.36-4.73c.34-1.12-.43-2.59-.72-4l1.38-.48a11.54,11.54,0,0,1,1.1-4.77c.1-.25.87-.23,1.45-.37l-.63-1c1.45-3,5.59-2.5,7.07-5.24ZM26.07,21.93c-2.86,1-2.27,4.31-4,5.7v4.3c1.05,4.6,3.4,8.16,7.89,10a47.78,47.78,0,0,1,5.49,0,6,6,0,0,0,3.61-1,2.53,2.53,0,0,0,3-2c2.89-1,2.3-4.34,4-5.73V28.42c-1.5-5.1-4.51-8.08-9.28-9.49H31.07C29,19.24,27,19.68,26.07,21.93Z"/><path class="cls-12" d="M150.14,37.79V32.16h4.7c1.5.65,1.49,2.27,1.21,4C154.54,37.87,152.58,38,150.14,37.79Z"/><path class="cls-13" d="M181.08,45.64l-2.22-4c.51-1.16.94-2.17,1.44-3.32l2.8-1.42L186,38.42v5.94C184.18,45.82,184.18,45.82,181.08,45.64Z"/><path class="cls-14" d="M106.13,39.71h-5.2c.3-2,1.18-2.91,2.91-2.73C105.26,37.12,106.06,38,106.13,39.71Z"/><path class="cls-15" d="M171.15,40l-5.11.13c-.22-1.71.45-2.92,2.21-3.1C170.3,36.78,171.14,38,171.15,40Z"/><path class="cls-16" d="M39.07,40.93a6,6,0,0,1-3.61,1,47.78,47.78,0,0,0-5.49,0c-4.49-1.84-6.84-5.4-7.89-10l4.1-.05c2.83,1.48,5.9,1,8.9,1-1.35,1.83-1,4-1,6-.3.17-.6.35,0,0-.35.6-.18.31,0,0,1.49,1.21,3.25,1.09,5,1Zm-9-3c.37,1.3,1,1.45,2.3,0h-2.3c-.12-1.42-1.21-.89-2-1l-1-1V33H24.91l2.16,2.89,1,1C28.19,38.36,29.29,37.83,30.07,37.93Z"/><path class="cls-17" d="M31.07,18.93H36.8c4.77,1.41,7.78,4.39,9.28,9.49V33.2c-1.71,1.39-1.12,4.7-4,5.73l-1-1V34c2.16-1.7,2.72-3.67,1-6V25.58l-3.79-4.06-2.2,1.36-2.87-2H31.07Z"/><path class="cls-18" d="M26.18,31.88l-4.1.05v-4.3c1.72-1.39,1.13-4.69,4-5.7l.06.05c0,.64.2,1.43-.09,1.9A5.31,5.31,0,0,0,26,30C26.33,30.46,26.14,31.24,26.18,31.88Z"/><path class="cls-18" d="M31.07,18.93v1.93L26.13,22l-.06-.05C27,19.68,29,19.24,31.07,18.93Z"/><path class="cls-18" d="M41.07,37.91l1,1a2.53,2.53,0,0,1-3,2v-1c0-.32,0-.65,0-1l0,0Z"/><path class="cls-19" d="M26.13,22l4.94-1.12h2.14l2.87,2c1.29.19.9,1.24,1,2L37.18,27l-.06,1.93c-.27,1.55-2.65,2-2,4h0c-3-.06-6.07.45-8.9-1,0-.64.15-1.42-.14-1.9a5.31,5.31,0,0,1,0-6.1C26.33,23.41,26.11,22.62,26.13,22Zm3.7,2c-2.27,1.37-2.25,3.21-1.31,4.78a2.91,2.91,0,0,0,4,1C34.59,25.93,29.8,26.61,29.83,23.94Z"/><path class="cls-20" d="M39.1,38.94c0,.33,0,.66,0,1-1.75.1-3.51.22-5-1h0c0-2.07-.34-4.19,1-6h0l4.92.92.08-1.91c1.44.12.89,1.24,1,2v4l-2,1.05V35.3c-2.3-.84-3.4,0-4,1.63C35.78,39.09,37.47,38.94,39.1,38.94Z"/><path class="cls-21" d="M27.07,35.93,24.91,33h2.16v2.89Z"/><path class="cls-21" d="M28.07,36.92c.79.11,1.88-.42,2,1h0c-.78-.1-1.88.43-2-1Z"/><path class="cls-21" d="M30.07,37.92h2.3c-1.32,1.46-1.93,1.31-2.3,0Z"/><path class="cls-21" d="M27.07,35.93l1,1h0l-1-1Z"/><path class="cls-21" d="M34.07,38.93c-.18.3-.35.59,0,0-.6.36-.3.18,0,0Z"/><path class="cls-22" d="M37.12,24.9c-.14-.78.25-1.83-1-2l2.2-1.36,3.79,4.06v2.36h-2l-3,1L37.18,27C38.5,26.05,38.49,25.73,37.12,24.9Z"/><path class="cls-23" d="M40.07,27.93h2c1.73,2.34,1.17,4.31-1,6-.12-.78.43-1.9-1-2Z"/><path class="cls-24" d="M29.83,23.94c0,2.67,4.76,2,2.7,5.8a2.91,2.91,0,0,1-4-1C27.58,27.15,27.56,25.31,29.83,23.94Z"/><path class="cls-25" d="M40.07,27.93v4L40,33.84l-4.92-.92c-.6-2,1.78-2.47,2-4Z"/><path class="cls-25" d="M37.12,24.9c1.37.83,1.38,1.15.06,2.07Z"/><path class="cls-26" d="M39.1,38.94c-1.63,0-3.32.15-4.07-2,.65-1.64,1.75-2.47,4-1.63V39Z"/></g></g></svg>